<svg width="86" height="92" viewBox="0 0 86 92" fill="none" xmlns="http://www.w3.org/2000/svg">
<path d="M24.0508 37.6406C23.9805 37.3594 23.9219 37.0547 23.875 36.7266L23.7344 35.7422C23.6406 35.0391 23.5938 34.2188 23.5938 33.2812C23.5938 32.3203 23.8047 31.2188 24.2266 29.9766C24.6719 28.7344 25.3867 27.6562 26.3711 26.7422C28.4805 24.7734 31.7383 23.7891 36.1445 23.7891L62.2656 46.7461C62.5 47.5898 62.6172 48.7148 62.6172 50.1211C62.6172 51.5039 62.3828 52.8281 61.9141 54.0938C61.4453 55.3359 60.6953 56.4141 59.6641 57.3281C57.4609 59.3438 54.25 60.3516 50.0312 60.3516L24.2969 37.6406H24.0508ZM62.8633 24.1406C63.5664 25.2188 63.918 26.6953 63.918 28.5703C63.918 32.0391 62.6172 34.6289 60.0156 36.3398L45.918 24.1406H62.8633ZM23.0312 60C22.3281 58.9219 21.9766 57.4453 21.9766 55.5703C21.9766 52.125 23.2656 49.5469 25.8438 47.8359L39.9766 60H23.0312Z" fill="#0247FE"/>
<path d="M7.23633 74.2227H7.02148C6.9694 74.0729 6.88477 73.9036 6.76758 73.7148C6.6569 73.526 6.50716 73.3503 6.31836 73.1875C6.13607 73.0182 5.91146 72.8783 5.64453 72.7676C5.38411 72.6569 5.07487 72.6016 4.7168 72.6016C4.39779 72.6016 4.11458 72.6504 3.86719 72.748C3.61979 72.8457 3.41146 72.9824 3.24219 73.1582C3.07943 73.334 2.95573 73.5423 2.87109 73.7832C2.78646 74.0241 2.74414 74.291 2.74414 74.584C2.74414 75.0527 2.87435 75.502 3.13477 75.9316C3.40169 76.3548 3.73372 76.7747 4.13086 77.1914C4.52799 77.6081 4.95768 78.0247 5.41992 78.4414C5.88216 78.8581 6.31185 79.291 6.70898 79.7402C7.10612 80.1895 7.4349 80.6615 7.69531 81.1562C7.96224 81.6445 8.0957 82.1719 8.0957 82.7383C8.0957 83.1615 8.02083 83.5879 7.87109 84.0176C7.72786 84.4408 7.50326 84.8216 7.19727 85.1602C6.89128 85.4987 6.4974 85.7754 6.01562 85.9902C5.53385 86.1986 4.96094 86.3027 4.29688 86.3027C3.92578 86.3027 3.57096 86.2669 3.23242 86.1953C2.90039 86.1302 2.59115 86.0488 2.30469 85.9512C2.02474 85.847 1.77083 85.7363 1.54297 85.6191C1.32161 85.502 1.13932 85.3945 0.996094 85.2969L1.2207 83.1387H1.46484C1.53646 83.4447 1.65365 83.7376 1.81641 84.0176C1.97917 84.291 2.17773 84.5352 2.41211 84.75C2.65299 84.9583 2.92643 85.1276 3.23242 85.2578C3.53841 85.3815 3.8737 85.4434 4.23828 85.4434C4.57031 85.4434 4.86654 85.3945 5.12695 85.2969C5.39388 85.1927 5.62174 85.0527 5.81055 84.877C5.99935 84.6947 6.14258 84.4798 6.24023 84.2324C6.3444 83.985 6.39648 83.7148 6.39648 83.4219C6.39648 83.0117 6.32161 82.6341 6.17188 82.2891C6.02214 81.9375 5.82357 81.6055 5.57617 81.293C5.33529 80.9805 5.05859 80.6777 4.74609 80.3848C4.4401 80.0918 4.12435 79.7988 3.79883 79.5059C3.47331 79.2064 3.1543 78.9004 2.8418 78.5879C2.53581 78.2754 2.25911 77.9434 2.01172 77.5918C1.77083 77.2337 1.57552 76.8529 1.42578 76.4492C1.27604 76.0391 1.20117 75.5898 1.20117 75.1016C1.20117 74.5872 1.29883 74.125 1.49414 73.7148C1.69596 73.2982 1.95964 72.9434 2.28516 72.6504C2.61719 72.3574 2.99154 72.1328 3.4082 71.9766C3.82487 71.8203 4.25456 71.7422 4.69727 71.7422C5.02279 71.7422 5.32227 71.7682 5.5957 71.8203C5.86914 71.8724 6.11328 71.9342 6.32812 72.0059C6.54948 72.0775 6.74154 72.1491 6.9043 72.2207C7.06706 72.2923 7.20052 72.3509 7.30469 72.3965L7.23633 74.2227ZM16.6602 82.6992C16.4844 82.6992 16.263 82.6992 15.9961 82.6992C15.7357 82.6992 15.4492 82.6992 15.1367 82.6992C14.8242 82.6992 14.502 82.6992 14.1699 82.6992C13.8379 82.6992 13.5221 82.7025 13.2227 82.709C12.9232 82.709 12.6497 82.7122 12.4023 82.7188C12.1549 82.7188 11.9629 82.7188 11.8262 82.7188L11.4648 83.4805C11.3086 83.793 11.1751 84.0664 11.0645 84.3008C10.9538 84.5286 10.8626 84.7305 10.791 84.9062C10.7194 85.082 10.6673 85.235 10.6348 85.3652C10.6022 85.4889 10.5859 85.6061 10.5859 85.7168C10.5859 85.7884 10.5892 85.8438 10.5957 85.8828C10.6022 85.9154 10.612 85.9414 10.625 85.9609V86H8.90625V85.9609C8.95182 85.9154 9.02344 85.8177 9.12109 85.668C9.21875 85.5117 9.32943 85.3229 9.45312 85.1016C9.58333 84.8802 9.72005 84.6296 9.86328 84.3496C10.013 84.0697 10.1595 83.7799 10.3027 83.4805L14.2871 75.2578H15.0195L18.9258 83.4805C19.0755 83.793 19.2253 84.0924 19.375 84.3789C19.5312 84.6654 19.6745 84.9225 19.8047 85.1504C19.9349 85.3717 20.0488 85.5573 20.1465 85.707C20.2441 85.8503 20.3092 85.9349 20.3418 85.9609V86H17.8418C17.8548 85.9479 17.8613 85.9023 17.8613 85.8633C17.8613 85.8177 17.8613 85.7689 17.8613 85.7168C17.8613 85.5736 17.8288 85.401 17.7637 85.1992C17.7051 84.9974 17.6302 84.7923 17.5391 84.584C17.4544 84.3691 17.3633 84.1641 17.2656 83.9688C17.1745 83.7734 17.0996 83.6107 17.041 83.4805L16.6602 82.6992ZM12.207 81.9375H12.8027C13.0762 81.9375 13.3659 81.9375 13.6719 81.9375C13.9844 81.931 14.2969 81.9277 14.6094 81.9277C14.9219 81.9277 15.2246 81.9277 15.5176 81.9277C15.8105 81.9212 16.0742 81.918 16.3086 81.918L14.2871 77.6016L12.207 81.9375ZM22.2266 75.502V75.541C22.2135 75.5736 22.2038 75.6257 22.1973 75.6973C22.1908 75.7689 22.1875 75.8307 22.1875 75.8828C22.1875 76.0911 22.2168 76.3255 22.2754 76.5859C22.3405 76.8398 22.4577 77.1589 22.627 77.543L25.2246 83.4219L27.8418 77.6211C27.9004 77.4974 27.959 77.3672 28.0176 77.2305C28.0762 77.0872 28.1315 76.9408 28.1836 76.791C28.2357 76.6413 28.278 76.4915 28.3105 76.3418C28.3431 76.1855 28.3594 76.0326 28.3594 75.8828C28.3594 75.7982 28.3529 75.7266 28.3398 75.668C28.3268 75.6029 28.3138 75.5605 28.3008 75.541V75.502H30.1465V75.541C30.0228 75.6712 29.8633 75.9023 29.668 76.2344C29.4727 76.5599 29.2708 76.9766 29.0625 77.4844L25.166 86.1367H24.541L20.9473 77.9824C20.8171 77.6829 20.6771 77.3965 20.5273 77.123C20.3841 76.8431 20.2474 76.5957 20.1172 76.3809C19.9935 76.1595 19.8828 75.9772 19.7852 75.834C19.6875 75.6842 19.6191 75.5866 19.5801 75.541V75.502H22.2266ZM31.1426 75.502C31.7806 75.502 32.4349 75.502 33.1055 75.502C33.776 75.4954 34.3978 75.4889 34.9707 75.4824C35.5436 75.4694 36.0352 75.4564 36.4453 75.4434C36.862 75.4303 37.1354 75.4108 37.2656 75.3848L36.8848 76.4395C36.709 76.3939 36.5104 76.3516 36.2891 76.3125C36.0938 76.2799 35.8561 76.2507 35.5762 76.2246C35.3027 76.1921 34.9837 76.1758 34.6191 76.1758C34.4889 76.1758 34.3392 76.1823 34.1699 76.1953C34.0007 76.2018 33.8379 76.2116 33.6816 76.2246C33.4993 76.2376 33.3138 76.2507 33.125 76.2637V80.1211C33.6523 80.1146 34.1276 80.1016 34.5508 80.082C34.974 80.0625 35.3353 80.0365 35.6348 80.0039C35.9863 79.9779 36.2956 79.9421 36.5625 79.8965L36.3281 81.0586C35.9701 81.013 35.6087 80.974 35.2441 80.9414C34.9316 80.9089 34.5866 80.8828 34.209 80.8633C33.8314 80.8372 33.4701 80.8242 33.125 80.8242V85.2578C33.7305 85.2578 34.2871 85.235 34.7949 85.1895C35.3027 85.1374 35.7454 85.082 36.123 85.0234C36.5658 84.9518 36.9661 84.8704 37.3242 84.7793L37.0996 86.0586C37.002 86.0521 36.8424 86.0423 36.6211 86.0293C36.4062 86.0228 36.1784 86.0163 35.9375 86.0098C35.7031 86.0098 35.4818 86.0065 35.2734 86C35.0651 86 34.9219 86 34.8438 86H31.1426V85.9609C31.1882 85.8242 31.2272 85.6484 31.2598 85.4336C31.2988 85.2188 31.3281 84.9551 31.3477 84.6426C31.3737 84.3236 31.3932 83.946 31.4062 83.5098C31.4193 83.0736 31.4258 82.5625 31.4258 81.9766V79.5156C31.4258 78.9297 31.4193 78.4219 31.4062 77.9922C31.3932 77.556 31.3737 77.1816 31.3477 76.8691C31.3281 76.5501 31.2988 76.2832 31.2598 76.0684C31.2272 75.8535 31.1882 75.6777 31.1426 75.541V75.502ZM45.459 74.2227H45.2441C45.1921 74.0729 45.1074 73.9036 44.9902 73.7148C44.8796 73.526 44.7298 73.3503 44.541 73.1875C44.3587 73.0182 44.1341 72.8783 43.8672 72.7676C43.6068 72.6569 43.2975 72.6016 42.9395 72.6016C42.6204 72.6016 42.3372 72.6504 42.0898 72.748C41.8424 72.8457 41.6341 72.9824 41.4648 73.1582C41.3021 73.334 41.1784 73.5423 41.0938 73.7832C41.0091 74.0241 40.9668 74.291 40.9668 74.584C40.9668 75.0527 41.097 75.502 41.3574 75.9316C41.6243 76.3548 41.9564 76.7747 42.3535 77.1914C42.7507 77.6081 43.1803 78.0247 43.6426 78.4414C44.1048 78.8581 44.5345 79.291 44.9316 79.7402C45.3288 80.1895 45.6576 80.6615 45.918 81.1562C46.1849 81.6445 46.3184 82.1719 46.3184 82.7383C46.3184 83.1615 46.2435 83.5879 46.0938 84.0176C45.9505 84.4408 45.7259 84.8216 45.4199 85.1602C45.1139 85.4987 44.7201 85.7754 44.2383 85.9902C43.7565 86.1986 43.1836 86.3027 42.5195 86.3027C42.1484 86.3027 41.7936 86.2669 41.4551 86.1953C41.123 86.1302 40.8138 86.0488 40.5273 85.9512C40.2474 85.847 39.9935 85.7363 39.7656 85.6191C39.5443 85.502 39.362 85.3945 39.2188 85.2969L39.4434 83.1387H39.6875C39.7591 83.4447 39.8763 83.7376 40.0391 84.0176C40.2018 84.291 40.4004 84.5352 40.6348 84.75C40.8757 84.9583 41.1491 85.1276 41.4551 85.2578C41.7611 85.3815 42.0964 85.4434 42.4609 85.4434C42.793 85.4434 43.0892 85.3945 43.3496 85.2969C43.6165 85.1927 43.8444 85.0527 44.0332 84.877C44.222 84.6947 44.3652 84.4798 44.4629 84.2324C44.5671 83.985 44.6191 83.7148 44.6191 83.4219C44.6191 83.0117 44.5443 82.6341 44.3945 82.2891C44.2448 81.9375 44.0462 81.6055 43.7988 81.293C43.5579 80.9805 43.2812 80.6777 42.9688 80.3848C42.6628 80.0918 42.347 79.7988 42.0215 79.5059C41.696 79.2064 41.377 78.9004 41.0645 78.5879C40.7585 78.2754 40.4818 77.9434 40.2344 77.5918C39.9935 77.2337 39.7982 76.8529 39.6484 76.4492C39.4987 76.0391 39.4238 75.5898 39.4238 75.1016C39.4238 74.5872 39.5215 74.125 39.7168 73.7148C39.9186 73.2982 40.1823 72.9434 40.5078 72.6504C40.8398 72.3574 41.2142 72.1328 41.6309 71.9766C42.0475 71.8203 42.4772 71.7422 42.9199 71.7422C43.2454 71.7422 43.5449 71.7682 43.8184 71.8203C44.0918 71.8724 44.3359 71.9342 44.5508 72.0059C44.7721 72.0775 44.9642 72.1491 45.127 72.2207C45.2897 72.2923 45.4232 72.3509 45.5273 72.3965L45.459 74.2227ZM50.5859 81.2441C50.7161 81.2637 50.8431 81.2832 50.9668 81.3027C51.097 81.3158 51.224 81.3223 51.3477 81.3223C51.7188 81.3223 52.0573 81.2669 52.3633 81.1562C52.6758 81.0391 52.9395 80.8665 53.1543 80.6387C53.3757 80.4108 53.5449 80.1211 53.6621 79.7695C53.7858 79.418 53.8477 79.0078 53.8477 78.5391C53.8477 78.1615 53.8053 77.8197 53.7207 77.5137C53.6361 77.2077 53.5091 76.9473 53.3398 76.7324C53.1771 76.5111 52.972 76.3418 52.7246 76.2246C52.4772 76.1009 52.1908 76.0391 51.8652 76.0391C51.6569 76.0391 51.4714 76.0488 51.3086 76.0684C51.1523 76.0814 51.0189 76.0977 50.9082 76.1172C50.7845 76.1432 50.6771 76.1693 50.5859 76.1953V81.2441ZM50.5859 81.918C50.5859 82.5039 50.5924 83.0182 50.6055 83.4609C50.6185 83.9036 50.6348 84.2878 50.6543 84.6133C50.6803 84.9323 50.7096 85.2025 50.7422 85.4238C50.7747 85.6452 50.8138 85.8242 50.8594 85.9609V86H48.6035V85.9609C48.6491 85.8242 48.6882 85.6484 48.7207 85.4336C48.7598 85.2188 48.7891 84.9551 48.8086 84.6426C48.8346 84.3236 48.8542 83.946 48.8672 83.5098C48.8802 83.0736 48.8867 82.5625 48.8867 81.9766V79.5156C48.8867 78.9297 48.8802 78.4219 48.8672 77.9922C48.8542 77.556 48.8346 77.1816 48.8086 76.8691C48.7891 76.5501 48.7598 76.2832 48.7207 76.0684C48.6882 75.8535 48.6491 75.6777 48.6035 75.541V75.502C48.7467 75.5085 48.89 75.515 49.0332 75.5215C49.1569 75.528 49.2871 75.5345 49.4238 75.541C49.5671 75.541 49.7005 75.541 49.8242 75.541C50.0326 75.541 50.3385 75.5215 50.7422 75.4824C51.1523 75.4434 51.6341 75.4238 52.1875 75.4238C52.6953 75.4238 53.1673 75.4922 53.6035 75.6289C54.0397 75.7591 54.4141 75.9544 54.7266 76.2148C55.0456 76.4753 55.293 76.7943 55.4688 77.1719C55.651 77.543 55.7422 77.9727 55.7422 78.4609C55.7422 79.0339 55.6315 79.5417 55.4102 79.9844C55.1888 80.4206 54.8861 80.7884 54.502 81.0879C54.1243 81.3809 53.6784 81.6022 53.1641 81.752C52.6497 81.9017 52.1029 81.9766 51.5234 81.9766C51.2174 81.9766 50.9049 81.957 50.5859 81.918ZM63.418 82.6992C63.2422 82.6992 63.0208 82.6992 62.7539 82.6992C62.4935 82.6992 62.207 82.6992 61.8945 82.6992C61.582 82.6992 61.2598 82.6992 60.9277 82.6992C60.5957 82.6992 60.2799 82.7025 59.9805 82.709C59.681 82.709 59.4076 82.7122 59.1602 82.7188C58.9128 82.7188 58.7207 82.7188 58.584 82.7188L58.2227 83.4805C58.0664 83.793 57.9329 84.0664 57.8223 84.3008C57.7116 84.5286 57.6204 84.7305 57.5488 84.9062C57.4772 85.082 57.4251 85.235 57.3926 85.3652C57.36 85.4889 57.3438 85.6061 57.3438 85.7168C57.3438 85.7884 57.347 85.8438 57.3535 85.8828C57.36 85.9154 57.3698 85.9414 57.3828 85.9609V86H55.6641V85.9609C55.7096 85.9154 55.7812 85.8177 55.8789 85.668C55.9766 85.5117 56.0872 85.3229 56.2109 85.1016C56.3411 84.8802 56.4779 84.6296 56.6211 84.3496C56.7708 84.0697 56.9173 83.7799 57.0605 83.4805L61.0449 75.2578H61.7773L65.6836 83.4805C65.8333 83.793 65.9831 84.0924 66.1328 84.3789C66.2891 84.6654 66.4323 84.9225 66.5625 85.1504C66.6927 85.3717 66.8066 85.5573 66.9043 85.707C67.002 85.8503 67.0671 85.9349 67.0996 85.9609V86H64.5996C64.6126 85.9479 64.6191 85.9023 64.6191 85.8633C64.6191 85.8177 64.6191 85.7689 64.6191 85.7168C64.6191 85.5736 64.5866 85.401 64.5215 85.1992C64.4629 84.9974 64.388 84.7923 64.2969 84.584C64.2122 84.3691 64.1211 84.1641 64.0234 83.9688C63.9323 83.7734 63.8574 83.6107 63.7988 83.4805L63.418 82.6992ZM58.9648 81.9375H59.5605C59.834 81.9375 60.1237 81.9375 60.4297 81.9375C60.7422 81.931 61.0547 81.9277 61.3672 81.9277C61.6797 81.9277 61.9824 81.9277 62.2754 81.9277C62.5684 81.9212 62.832 81.918 63.0664 81.918L61.0449 77.6016L58.9648 81.9375ZM77.1094 83.8223L76.3477 85.6387C76.1589 85.7233 75.944 85.8014 75.7031 85.873C75.4688 85.9382 75.2246 85.9935 74.9707 86.0391C74.7168 86.0846 74.4564 86.1172 74.1895 86.1367C73.929 86.1628 73.6816 86.1758 73.4473 86.1758C72.627 86.1758 71.8652 86.0553 71.1621 85.8145C70.4655 85.5736 69.8633 85.222 69.3555 84.7598C68.8477 84.291 68.4505 83.7181 68.1641 83.041C67.8776 82.3639 67.7344 81.5892 67.7344 80.7168C67.7344 79.9486 67.8841 79.2357 68.1836 78.5781C68.4831 77.9206 68.8965 77.3509 69.4238 76.8691C69.9512 76.3809 70.5729 76 71.2891 75.7266C72.0117 75.4531 72.793 75.3164 73.6328 75.3164C73.8216 75.3164 74.0202 75.3262 74.2285 75.3457C74.4434 75.3587 74.6549 75.3815 74.8633 75.4141C75.0716 75.4466 75.2734 75.4857 75.4688 75.5312C75.6641 75.5703 75.8464 75.6126 76.0156 75.6582L76.748 77.416L76.6309 77.4844C76.4551 77.2695 76.2435 77.071 75.9961 76.8887C75.7552 76.7064 75.4883 76.5534 75.1953 76.4297C74.9089 76.2995 74.6061 76.1986 74.2871 76.127C73.9681 76.0553 73.6426 76.0195 73.3105 76.0195C72.7702 76.0195 72.2754 76.1139 71.8262 76.3027C71.3835 76.4915 71.0026 76.7682 70.6836 77.1328C70.3711 77.4909 70.127 77.9303 69.9512 78.4512C69.7754 78.972 69.6875 79.5612 69.6875 80.2188C69.6875 80.9609 69.7721 81.6543 69.9414 82.2988C70.1107 82.9368 70.3646 83.4935 70.7031 83.9688C71.0417 84.4375 71.4648 84.8086 71.9727 85.082C72.4805 85.349 73.0729 85.4824 73.75 85.4824C74.0755 85.4824 74.3945 85.4434 74.707 85.3652C75.026 85.2806 75.3255 85.1634 75.6055 85.0137C75.8919 84.8639 76.1523 84.6849 76.3867 84.4766C76.6211 84.2617 76.8229 84.0241 76.9922 83.7637L77.1094 83.8223ZM78.7012 75.502C79.3392 75.502 79.9935 75.502 80.6641 75.502C81.3346 75.4954 81.9564 75.4889 82.5293 75.4824C83.1022 75.4694 83.5938 75.4564 84.0039 75.4434C84.4206 75.4303 84.694 75.4108 84.8242 75.3848L84.4434 76.4395C84.2676 76.3939 84.069 76.3516 83.8477 76.3125C83.6523 76.2799 83.4147 76.2507 83.1348 76.2246C82.8613 76.1921 82.5423 76.1758 82.1777 76.1758C82.0475 76.1758 81.8978 76.1823 81.7285 76.1953C81.5592 76.2018 81.3965 76.2116 81.2402 76.2246C81.0579 76.2376 80.8724 76.2507 80.6836 76.2637V80.1211C81.2109 80.1146 81.6862 80.1016 82.1094 80.082C82.5326 80.0625 82.8939 80.0365 83.1934 80.0039C83.5449 79.9779 83.8542 79.9421 84.1211 79.8965L83.8867 81.0586C83.5286 81.013 83.1673 80.974 82.8027 80.9414C82.4902 80.9089 82.1452 80.8828 81.7676 80.8633C81.39 80.8372 81.0286 80.8242 80.6836 80.8242V85.2578C81.2891 85.2578 81.8457 85.235 82.3535 85.1895C82.8613 85.1374 83.304 85.082 83.6816 85.0234C84.1243 84.9518 84.5247 84.8704 84.8828 84.7793L84.6582 86.0586C84.5605 86.0521 84.401 86.0423 84.1797 86.0293C83.9648 86.0228 83.737 86.0163 83.4961 86.0098C83.2617 86.0098 83.0404 86.0065 82.832 86C82.6237 86 82.4805 86 82.4023 86H78.7012V85.9609C78.7467 85.8242 78.7858 85.6484 78.8184 85.4336C78.8574 85.2188 78.8867 84.9551 78.9062 84.6426C78.9323 84.3236 78.9518 83.946 78.9648 83.5098C78.9779 83.0736 78.9844 82.5625 78.9844 81.9766V79.5156C78.9844 78.9297 78.9779 78.4219 78.9648 77.9922C78.9518 77.556 78.9323 77.1816 78.9062 76.8691C78.8867 76.5501 78.8574 76.2832 78.8184 76.0684C78.7858 75.8535 78.7467 75.6777 78.7012 75.541V75.502Z" fill="#0247FE"/>
</svg>
