<svg width="86" height="102" viewBox="0 0 86 102" fill="none" xmlns="http://www.w3.org/2000/svg">
<path d="M24.0508 47.6406C23.9805 47.3594 23.9219 47.0547 23.875 46.7266L23.7344 45.7422C23.6406 45.0391 23.5938 44.2188 23.5938 43.2812C23.5938 42.3203 23.8047 41.2188 24.2266 39.9766C24.6719 38.7344 25.3867 37.6562 26.3711 36.7422C28.4805 34.7734 31.7383 33.7891 36.1445 33.7891L62.2656 56.7461C62.5 57.5898 62.6172 58.7148 62.6172 60.1211C62.6172 61.5039 62.3828 62.8281 61.9141 64.0938C61.4453 65.3359 60.6953 66.4141 59.6641 67.3281C57.4609 69.3438 54.25 70.3516 50.0312 70.3516L24.2969 47.6406H24.0508ZM62.8633 34.1406C63.5664 35.2188 63.918 36.6953 63.918 38.5703C63.918 42.0391 62.6172 44.6289 60.0156 46.3398L45.918 34.1406H62.8633ZM23.0312 70C22.3281 68.9219 21.9766 67.4453 21.9766 65.5703C21.9766 62.125 23.2656 59.5469 25.8438 57.8359L39.9766 70H23.0312Z" fill="#FBFBFB"/>
<path d="M7.23633 84.2227H7.02148C6.9694 84.0729 6.88477 83.9036 6.76758 83.7148C6.6569 83.526 6.50716 83.3503 6.31836 83.1875C6.13607 83.0182 5.91146 82.8783 5.64453 82.7676C5.38411 82.6569 5.07487 82.6016 4.7168 82.6016C4.39779 82.6016 4.11458 82.6504 3.86719 82.748C3.61979 82.8457 3.41146 82.9824 3.24219 83.1582C3.07943 83.334 2.95573 83.5423 2.87109 83.7832C2.78646 84.0241 2.74414 84.291 2.74414 84.584C2.74414 85.0527 2.87435 85.502 3.13477 85.9316C3.40169 86.3548 3.73372 86.7747 4.13086 87.1914C4.52799 87.6081 4.95768 88.0247 5.41992 88.4414C5.88216 88.8581 6.31185 89.291 6.70898 89.7402C7.10612 90.1895 7.4349 90.6615 7.69531 91.1562C7.96224 91.6445 8.0957 92.1719 8.0957 92.7383C8.0957 93.1615 8.02083 93.5879 7.87109 94.0176C7.72786 94.4408 7.50326 94.8216 7.19727 95.1602C6.89128 95.4987 6.4974 95.7754 6.01562 95.9902C5.53385 96.1986 4.96094 96.3027 4.29688 96.3027C3.92578 96.3027 3.57096 96.2669 3.23242 96.1953C2.90039 96.1302 2.59115 96.0488 2.30469 95.9512C2.02474 95.847 1.77083 95.7363 1.54297 95.6191C1.32161 95.502 1.13932 95.3945 0.996094 95.2969L1.2207 93.1387H1.46484C1.53646 93.4447 1.65365 93.7376 1.81641 94.0176C1.97917 94.291 2.17773 94.5352 2.41211 94.75C2.65299 94.9583 2.92643 95.1276 3.23242 95.2578C3.53841 95.3815 3.8737 95.4434 4.23828 95.4434C4.57031 95.4434 4.86654 95.3945 5.12695 95.2969C5.39388 95.1927 5.62174 95.0527 5.81055 94.877C5.99935 94.6947 6.14258 94.4798 6.24023 94.2324C6.3444 93.985 6.39648 93.7148 6.39648 93.4219C6.39648 93.0117 6.32161 92.6341 6.17188 92.2891C6.02214 91.9375 5.82357 91.6055 5.57617 91.293C5.33529 90.9805 5.05859 90.6777 4.74609 90.3848C4.4401 90.0918 4.12435 89.7988 3.79883 89.5059C3.47331 89.2064 3.1543 88.9004 2.8418 88.5879C2.53581 88.2754 2.25911 87.9434 2.01172 87.5918C1.77083 87.2337 1.57552 86.8529 1.42578 86.4492C1.27604 86.0391 1.20117 85.5898 1.20117 85.1016C1.20117 84.5872 1.29883 84.125 1.49414 83.7148C1.69596 83.2982 1.95964 82.9434 2.28516 82.6504C2.61719 82.3574 2.99154 82.1328 3.4082 81.9766C3.82487 81.8203 4.25456 81.7422 4.69727 81.7422C5.02279 81.7422 5.32227 81.7682 5.5957 81.8203C5.86914 81.8724 6.11328 81.9342 6.32812 82.0059C6.54948 82.0775 6.74154 82.1491 6.9043 82.2207C7.06706 82.2923 7.20052 82.3509 7.30469 82.3965L7.23633 84.2227ZM16.6602 92.6992C16.4844 92.6992 16.263 92.6992 15.9961 92.6992C15.7357 92.6992 15.4492 92.6992 15.1367 92.6992C14.8242 92.6992 14.502 92.6992 14.1699 92.6992C13.8379 92.6992 13.5221 92.7025 13.2227 92.709C12.9232 92.709 12.6497 92.7122 12.4023 92.7188C12.1549 92.7188 11.9629 92.7188 11.8262 92.7188L11.4648 93.4805C11.3086 93.793 11.1751 94.0664 11.0645 94.3008C10.9538 94.5286 10.8626 94.7305 10.791 94.9062C10.7194 95.082 10.6673 95.235 10.6348 95.3652C10.6022 95.4889 10.5859 95.6061 10.5859 95.7168C10.5859 95.7884 10.5892 95.8438 10.5957 95.8828C10.6022 95.9154 10.612 95.9414 10.625 95.9609V96H8.90625V95.9609C8.95182 95.9154 9.02344 95.8177 9.12109 95.668C9.21875 95.5117 9.32943 95.3229 9.45312 95.1016C9.58333 94.8802 9.72005 94.6296 9.86328 94.3496C10.013 94.0697 10.1595 93.7799 10.3027 93.4805L14.2871 85.2578H15.0195L18.9258 93.4805C19.0755 93.793 19.2253 94.0924 19.375 94.3789C19.5312 94.6654 19.6745 94.9225 19.8047 95.1504C19.9349 95.3717 20.0488 95.5573 20.1465 95.707C20.2441 95.8503 20.3092 95.9349 20.3418 95.9609V96H17.8418C17.8548 95.9479 17.8613 95.9023 17.8613 95.8633C17.8613 95.8177 17.8613 95.7689 17.8613 95.7168C17.8613 95.5736 17.8288 95.401 17.7637 95.1992C17.7051 94.9974 17.6302 94.7923 17.5391 94.584C17.4544 94.3691 17.3633 94.1641 17.2656 93.9688C17.1745 93.7734 17.0996 93.6107 17.041 93.4805L16.6602 92.6992ZM12.207 91.9375H12.8027C13.0762 91.9375 13.3659 91.9375 13.6719 91.9375C13.9844 91.931 14.2969 91.9277 14.6094 91.9277C14.9219 91.9277 15.2246 91.9277 15.5176 91.9277C15.8105 91.9212 16.0742 91.918 16.3086 91.918L14.2871 87.6016L12.207 91.9375ZM22.2266 85.502V85.541C22.2135 85.5736 22.2038 85.6257 22.1973 85.6973C22.1908 85.7689 22.1875 85.8307 22.1875 85.8828C22.1875 86.0911 22.2168 86.3255 22.2754 86.5859C22.3405 86.8398 22.4577 87.1589 22.627 87.543L25.2246 93.4219L27.8418 87.6211C27.9004 87.4974 27.959 87.3672 28.0176 87.2305C28.0762 87.0872 28.1315 86.9408 28.1836 86.791C28.2357 86.6413 28.278 86.4915 28.3105 86.3418C28.3431 86.1855 28.3594 86.0326 28.3594 85.8828C28.3594 85.7982 28.3529 85.7266 28.3398 85.668C28.3268 85.6029 28.3138 85.5605 28.3008 85.541V85.502H30.1465V85.541C30.0228 85.6712 29.8633 85.9023 29.668 86.2344C29.4727 86.5599 29.2708 86.9766 29.0625 87.4844L25.166 96.1367H24.541L20.9473 87.9824C20.8171 87.6829 20.6771 87.3965 20.5273 87.123C20.3841 86.8431 20.2474 86.5957 20.1172 86.3809C19.9935 86.1595 19.8828 85.9772 19.7852 85.834C19.6875 85.6842 19.6191 85.5866 19.5801 85.541V85.502H22.2266ZM31.1426 85.502C31.7806 85.502 32.4349 85.502 33.1055 85.502C33.776 85.4954 34.3978 85.4889 34.9707 85.4824C35.5436 85.4694 36.0352 85.4564 36.4453 85.4434C36.862 85.4303 37.1354 85.4108 37.2656 85.3848L36.8848 86.4395C36.709 86.3939 36.5104 86.3516 36.2891 86.3125C36.0938 86.2799 35.8561 86.2507 35.5762 86.2246C35.3027 86.1921 34.9837 86.1758 34.6191 86.1758C34.4889 86.1758 34.3392 86.1823 34.1699 86.1953C34.0007 86.2018 33.8379 86.2116 33.6816 86.2246C33.4993 86.2376 33.3138 86.2507 33.125 86.2637V90.1211C33.6523 90.1146 34.1276 90.1016 34.5508 90.082C34.974 90.0625 35.3353 90.0365 35.6348 90.0039C35.9863 89.9779 36.2956 89.9421 36.5625 89.8965L36.3281 91.0586C35.9701 91.013 35.6087 90.974 35.2441 90.9414C34.9316 90.9089 34.5866 90.8828 34.209 90.8633C33.8314 90.8372 33.4701 90.8242 33.125 90.8242V95.2578C33.7305 95.2578 34.2871 95.235 34.7949 95.1895C35.3027 95.1374 35.7454 95.082 36.123 95.0234C36.5658 94.9518 36.9661 94.8704 37.3242 94.7793L37.0996 96.0586C37.002 96.0521 36.8424 96.0423 36.6211 96.0293C36.4062 96.0228 36.1784 96.0163 35.9375 96.0098C35.7031 96.0098 35.4818 96.0065 35.2734 96C35.0651 96 34.9219 96 34.8438 96H31.1426V95.9609C31.1882 95.8242 31.2272 95.6484 31.2598 95.4336C31.2988 95.2188 31.3281 94.9551 31.3477 94.6426C31.3737 94.3236 31.3932 93.946 31.4062 93.5098C31.4193 93.0736 31.4258 92.5625 31.4258 91.9766V89.5156C31.4258 88.9297 31.4193 88.4219 31.4062 87.9922C31.3932 87.556 31.3737 87.1816 31.3477 86.8691C31.3281 86.5501 31.2988 86.2832 31.2598 86.0684C31.2272 85.8535 31.1882 85.6777 31.1426 85.541V85.502ZM45.459 84.2227H45.2441C45.1921 84.0729 45.1074 83.9036 44.9902 83.7148C44.8796 83.526 44.7298 83.3503 44.541 83.1875C44.3587 83.0182 44.1341 82.8783 43.8672 82.7676C43.6068 82.6569 43.2975 82.6016 42.9395 82.6016C42.6204 82.6016 42.3372 82.6504 42.0898 82.748C41.8424 82.8457 41.6341 82.9824 41.4648 83.1582C41.3021 83.334 41.1784 83.5423 41.0938 83.7832C41.0091 84.0241 40.9668 84.291 40.9668 84.584C40.9668 85.0527 41.097 85.502 41.3574 85.9316C41.6243 86.3548 41.9564 86.7747 42.3535 87.1914C42.7507 87.6081 43.1803 88.0247 43.6426 88.4414C44.1048 88.8581 44.5345 89.291 44.9316 89.7402C45.3288 90.1895 45.6576 90.6615 45.918 91.1562C46.1849 91.6445 46.3184 92.1719 46.3184 92.7383C46.3184 93.1615 46.2435 93.5879 46.0938 94.0176C45.9505 94.4408 45.7259 94.8216 45.4199 95.1602C45.1139 95.4987 44.7201 95.7754 44.2383 95.9902C43.7565 96.1986 43.1836 96.3027 42.5195 96.3027C42.1484 96.3027 41.7936 96.2669 41.4551 96.1953C41.123 96.1302 40.8138 96.0488 40.5273 95.9512C40.2474 95.847 39.9935 95.7363 39.7656 95.6191C39.5443 95.502 39.362 95.3945 39.2188 95.2969L39.4434 93.1387H39.6875C39.7591 93.4447 39.8763 93.7376 40.0391 94.0176C40.2018 94.291 40.4004 94.5352 40.6348 94.75C40.8757 94.9583 41.1491 95.1276 41.4551 95.2578C41.7611 95.3815 42.0964 95.4434 42.4609 95.4434C42.793 95.4434 43.0892 95.3945 43.3496 95.2969C43.6165 95.1927 43.8444 95.0527 44.0332 94.877C44.222 94.6947 44.3652 94.4798 44.4629 94.2324C44.5671 93.985 44.6191 93.7148 44.6191 93.4219C44.6191 93.0117 44.5443 92.6341 44.3945 92.2891C44.2448 91.9375 44.0462 91.6055 43.7988 91.293C43.5579 90.9805 43.2812 90.6777 42.9688 90.3848C42.6628 90.0918 42.347 89.7988 42.0215 89.5059C41.696 89.2064 41.377 88.9004 41.0645 88.5879C40.7585 88.2754 40.4818 87.9434 40.2344 87.5918C39.9935 87.2337 39.7982 86.8529 39.6484 86.4492C39.4987 86.0391 39.4238 85.5898 39.4238 85.1016C39.4238 84.5872 39.5215 84.125 39.7168 83.7148C39.9186 83.2982 40.1823 82.9434 40.5078 82.6504C40.8398 82.3574 41.2142 82.1328 41.6309 81.9766C42.0475 81.8203 42.4772 81.7422 42.9199 81.7422C43.2454 81.7422 43.5449 81.7682 43.8184 81.8203C44.0918 81.8724 44.3359 81.9342 44.5508 82.0059C44.7721 82.0775 44.9642 82.1491 45.127 82.2207C45.2897 82.2923 45.4232 82.3509 45.5273 82.3965L45.459 84.2227ZM50.5859 91.2441C50.7161 91.2637 50.8431 91.2832 50.9668 91.3027C51.097 91.3158 51.224 91.3223 51.3477 91.3223C51.7188 91.3223 52.0573 91.2669 52.3633 91.1562C52.6758 91.0391 52.9395 90.8665 53.1543 90.6387C53.3757 90.4108 53.5449 90.1211 53.6621 89.7695C53.7858 89.418 53.8477 89.0078 53.8477 88.5391C53.8477 88.1615 53.8053 87.8197 53.7207 87.5137C53.6361 87.2077 53.5091 86.9473 53.3398 86.7324C53.1771 86.5111 52.972 86.3418 52.7246 86.2246C52.4772 86.1009 52.1908 86.0391 51.8652 86.0391C51.6569 86.0391 51.4714 86.0488 51.3086 86.0684C51.1523 86.0814 51.0189 86.0977 50.9082 86.1172C50.7845 86.1432 50.6771 86.1693 50.5859 86.1953V91.2441ZM50.5859 91.918C50.5859 92.5039 50.5924 93.0182 50.6055 93.4609C50.6185 93.9036 50.6348 94.2878 50.6543 94.6133C50.6803 94.9323 50.7096 95.2025 50.7422 95.4238C50.7747 95.6452 50.8138 95.8242 50.8594 95.9609V96H48.6035V95.9609C48.6491 95.8242 48.6882 95.6484 48.7207 95.4336C48.7598 95.2188 48.7891 94.9551 48.8086 94.6426C48.8346 94.3236 48.8542 93.946 48.8672 93.5098C48.8802 93.0736 48.8867 92.5625 48.8867 91.9766V89.5156C48.8867 88.9297 48.8802 88.4219 48.8672 87.9922C48.8542 87.556 48.8346 87.1816 48.8086 86.8691C48.7891 86.5501 48.7598 86.2832 48.7207 86.0684C48.6882 85.8535 48.6491 85.6777 48.6035 85.541V85.502C48.7467 85.5085 48.89 85.515 49.0332 85.5215C49.1569 85.528 49.2871 85.5345 49.4238 85.541C49.5671 85.541 49.7005 85.541 49.8242 85.541C50.0326 85.541 50.3385 85.5215 50.7422 85.4824C51.1523 85.4434 51.6341 85.4238 52.1875 85.4238C52.6953 85.4238 53.1673 85.4922 53.6035 85.6289C54.0397 85.7591 54.4141 85.9544 54.7266 86.2148C55.0456 86.4753 55.293 86.7943 55.4688 87.1719C55.651 87.543 55.7422 87.9727 55.7422 88.4609C55.7422 89.0339 55.6315 89.5417 55.4102 89.9844C55.1888 90.4206 54.8861 90.7884 54.502 91.0879C54.1243 91.3809 53.6784 91.6022 53.1641 91.752C52.6497 91.9017 52.1029 91.9766 51.5234 91.9766C51.2174 91.9766 50.9049 91.957 50.5859 91.918ZM63.418 92.6992C63.2422 92.6992 63.0208 92.6992 62.7539 92.6992C62.4935 92.6992 62.207 92.6992 61.8945 92.6992C61.582 92.6992 61.2598 92.6992 60.9277 92.6992C60.5957 92.6992 60.2799 92.7025 59.9805 92.709C59.681 92.709 59.4076 92.7122 59.1602 92.7188C58.9128 92.7188 58.7207 92.7188 58.584 92.7188L58.2227 93.4805C58.0664 93.793 57.9329 94.0664 57.8223 94.3008C57.7116 94.5286 57.6204 94.7305 57.5488 94.9062C57.4772 95.082 57.4251 95.235 57.3926 95.3652C57.36 95.4889 57.3438 95.6061 57.3438 95.7168C57.3438 95.7884 57.347 95.8438 57.3535 95.8828C57.36 95.9154 57.3698 95.9414 57.3828 95.9609V96H55.6641V95.9609C55.7096 95.9154 55.7812 95.8177 55.8789 95.668C55.9766 95.5117 56.0872 95.3229 56.2109 95.1016C56.3411 94.8802 56.4779 94.6296 56.6211 94.3496C56.7708 94.0697 56.9173 93.7799 57.0605 93.4805L61.0449 85.2578H61.7773L65.6836 93.4805C65.8333 93.793 65.9831 94.0924 66.1328 94.3789C66.2891 94.6654 66.4323 94.9225 66.5625 95.1504C66.6927 95.3717 66.8066 95.5573 66.9043 95.707C67.002 95.8503 67.0671 95.9349 67.0996 95.9609V96H64.5996C64.6126 95.9479 64.6191 95.9023 64.6191 95.8633C64.6191 95.8177 64.6191 95.7689 64.6191 95.7168C64.6191 95.5736 64.5866 95.401 64.5215 95.1992C64.4629 94.9974 64.388 94.7923 64.2969 94.584C64.2122 94.3691 64.1211 94.1641 64.0234 93.9688C63.9323 93.7734 63.8574 93.6107 63.7988 93.4805L63.418 92.6992ZM58.9648 91.9375H59.5605C59.834 91.9375 60.1237 91.9375 60.4297 91.9375C60.7422 91.931 61.0547 91.9277 61.3672 91.9277C61.6797 91.9277 61.9824 91.9277 62.2754 91.9277C62.5684 91.9212 62.832 91.918 63.0664 91.918L61.0449 87.6016L58.9648 91.9375ZM77.1094 93.8223L76.3477 95.6387C76.1589 95.7233 75.944 95.8014 75.7031 95.873C75.4688 95.9382 75.2246 95.9935 74.9707 96.0391C74.7168 96.0846 74.4564 96.1172 74.1895 96.1367C73.929 96.1628 73.6816 96.1758 73.4473 96.1758C72.627 96.1758 71.8652 96.0553 71.1621 95.8145C70.4655 95.5736 69.8633 95.222 69.3555 94.7598C68.8477 94.291 68.4505 93.7181 68.1641 93.041C67.8776 92.3639 67.7344 91.5892 67.7344 90.7168C67.7344 89.9486 67.8841 89.2357 68.1836 88.5781C68.4831 87.9206 68.8965 87.3509 69.4238 86.8691C69.9512 86.3809 70.5729 86 71.2891 85.7266C72.0117 85.4531 72.793 85.3164 73.6328 85.3164C73.8216 85.3164 74.0202 85.3262 74.2285 85.3457C74.4434 85.3587 74.6549 85.3815 74.8633 85.4141C75.0716 85.4466 75.2734 85.4857 75.4688 85.5312C75.6641 85.5703 75.8464 85.6126 76.0156 85.6582L76.748 87.416L76.6309 87.4844C76.4551 87.2695 76.2435 87.071 75.9961 86.8887C75.7552 86.7064 75.4883 86.5534 75.1953 86.4297C74.9089 86.2995 74.6061 86.1986 74.2871 86.127C73.9681 86.0553 73.6426 86.0195 73.3105 86.0195C72.7702 86.0195 72.2754 86.1139 71.8262 86.3027C71.3835 86.4915 71.0026 86.7682 70.6836 87.1328C70.3711 87.4909 70.127 87.9303 69.9512 88.4512C69.7754 88.972 69.6875 89.5612 69.6875 90.2188C69.6875 90.9609 69.7721 91.6543 69.9414 92.2988C70.1107 92.9368 70.3646 93.4935 70.7031 93.9688C71.0417 94.4375 71.4648 94.8086 71.9727 95.082C72.4805 95.349 73.0729 95.4824 73.75 95.4824C74.0755 95.4824 74.3945 95.4434 74.707 95.3652C75.026 95.2806 75.3255 95.1634 75.6055 95.0137C75.8919 94.8639 76.1523 94.6849 76.3867 94.4766C76.6211 94.2617 76.8229 94.0241 76.9922 93.7637L77.1094 93.8223ZM78.7012 85.502C79.3392 85.502 79.9935 85.502 80.6641 85.502C81.3346 85.4954 81.9564 85.4889 82.5293 85.4824C83.1022 85.4694 83.5938 85.4564 84.0039 85.4434C84.4206 85.4303 84.694 85.4108 84.8242 85.3848L84.4434 86.4395C84.2676 86.3939 84.069 86.3516 83.8477 86.3125C83.6523 86.2799 83.4147 86.2507 83.1348 86.2246C82.8613 86.1921 82.5423 86.1758 82.1777 86.1758C82.0475 86.1758 81.8978 86.1823 81.7285 86.1953C81.5592 86.2018 81.3965 86.2116 81.2402 86.2246C81.0579 86.2376 80.8724 86.2507 80.6836 86.2637V90.1211C81.2109 90.1146 81.6862 90.1016 82.1094 90.082C82.5326 90.0625 82.8939 90.0365 83.1934 90.0039C83.5449 89.9779 83.8542 89.9421 84.1211 89.8965L83.8867 91.0586C83.5286 91.013 83.1673 90.974 82.8027 90.9414C82.4902 90.9089 82.1452 90.8828 81.7676 90.8633C81.39 90.8372 81.0286 90.8242 80.6836 90.8242V95.2578C81.2891 95.2578 81.8457 95.235 82.3535 95.1895C82.8613 95.1374 83.304 95.082 83.6816 95.0234C84.1243 94.9518 84.5247 94.8704 84.8828 94.7793L84.6582 96.0586C84.5605 96.0521 84.401 96.0423 84.1797 96.0293C83.9648 96.0228 83.737 96.0163 83.4961 96.0098C83.2617 96.0098 83.0404 96.0065 82.832 96C82.6237 96 82.4805 96 82.4023 96H78.7012V95.9609C78.7467 95.8242 78.7858 95.6484 78.8184 95.4336C78.8574 95.2188 78.8867 94.9551 78.9062 94.6426C78.9323 94.3236 78.9518 93.946 78.9648 93.5098C78.9779 93.0736 78.9844 92.5625 78.9844 91.9766V89.5156C78.9844 88.9297 78.9779 88.4219 78.9648 87.9922C78.9518 87.556 78.9323 87.1816 78.9062 86.8691C78.8867 86.5501 78.8574 86.2832 78.8184 86.0684C78.7858 85.8535 78.7467 85.6777 78.7012 85.541V85.502Z" fill="#FBFBFB"/>
</svg>
