<svg width="115" height="104" viewBox="0 0 115 104" fill="none" xmlns="http://www.w3.org/2000/svg">
<circle cx="14.5" cy="1.5" r="1.5" fill="#5684FE"/>
<circle cx="14.5" cy="12.5" r="1.5" fill="#5684FE"/>
<circle cx="14.5" cy="23.5" r="1.5" fill="#5684FE"/>
<circle cx="14.5" cy="34.5" r="1.5" fill="#5684FE"/>
<circle cx="14.5" cy="45.5" r="1.5" fill="#5684FE"/>
<circle cx="14.5" cy="56.5" r="1.5" fill="#5684FE"/>
<circle cx="14.5" cy="67.5" r="1.5" fill="#5684FE"/>
<circle cx="14.5" cy="78.5" r="1.5" fill="#5684FE"/>
<circle cx="14.5" cy="89.5" r="1.5" fill="#5684FE"/>
<circle cx="25.5" cy="89.5" r="1.5" transform="rotate(-90 25.5 89.5)" fill="#5684FE"/>
<circle cx="36.5" cy="89.5" r="1.5" transform="rotate(-90 36.5 89.5)" fill="#5684FE"/>
<circle cx="47.5" cy="89.5" r="1.5" transform="rotate(-90 47.5 89.5)" fill="#5684FE"/>
<circle cx="58.5" cy="89.5" r="1.5" transform="rotate(-90 58.5 89.5)" fill="#5684FE"/>
<circle cx="69.5" cy="89.5" r="1.5" transform="rotate(-90 69.5 89.5)" fill="#5684FE"/>
<circle cx="80.5" cy="89.5" r="1.5" transform="rotate(-90 80.5 89.5)" fill="#5684FE"/>
<circle cx="91.5" cy="89.5" r="1.5" transform="rotate(-90 91.5 89.5)" fill="#5684FE"/>
<circle cx="102.5" cy="89.5" r="1.5" transform="rotate(-90 102.5 89.5)" fill="#5684FE"/>
<circle cx="113.5" cy="89.5" r="1.5" transform="rotate(-90 113.5 89.5)" fill="#5684FE"/>
<circle cx="1.5" cy="3.5" r="1.5" fill="#5684FE"/>
<circle cx="1.5" cy="14.5" r="1.5" fill="#5684FE"/>
<circle cx="1.5" cy="25.5" r="1.5" fill="#5684FE"/>
<circle cx="1.5" cy="36.5" r="1.5" fill="#5684FE"/>
<circle cx="1.5" cy="47.5" r="1.5" fill="#5684FE"/>
<circle cx="1.5" cy="58.5" r="1.5" fill="#5684FE"/>
<circle cx="1.5" cy="69.5" r="1.5" fill="#5684FE"/>
<circle cx="1.5" cy="80.5" r="1.5" fill="#5684FE"/>
<circle cx="1.5" cy="91.5" r="1.5" fill="#5684FE"/>
<circle cx="1.5" cy="102.5" r="1.5" fill="#5684FE"/>
<circle cx="12.5" cy="102.5" r="1.5" transform="rotate(-90 12.5 102.5)" fill="#5684FE"/>
<circle cx="23.5" cy="102.5" r="1.5" transform="rotate(-90 23.5 102.5)" fill="#5684FE"/>
<circle cx="34.5" cy="102.5" r="1.5" transform="rotate(-90 34.5 102.5)" fill="#5684FE"/>
<circle cx="45.5" cy="102.5" r="1.5" transform="rotate(-90 45.5 102.5)" fill="#5684FE"/>
<circle cx="56.5" cy="102.5" r="1.5" transform="rotate(-90 56.5 102.5)" fill="#5684FE"/>
<circle cx="67.5" cy="102.5" r="1.5" transform="rotate(-90 67.5 102.5)" fill="#5684FE"/>
<circle cx="78.5" cy="102.5" r="1.5" transform="rotate(-90 78.5 102.5)" fill="#5684FE"/>
<circle cx="89.5" cy="102.5" r="1.5" transform="rotate(-90 89.5 102.5)" fill="#5684FE"/>
<circle cx="100.5" cy="102.5" r="1.5" transform="rotate(-90 100.5 102.5)" fill="#5684FE"/>
<circle cx="111.5" cy="102.5" r="1.5" transform="rotate(-90 111.5 102.5)" fill="#5684FE"/>
</svg>
