<svg width="40" height="40" viewBox="0 0 40 40" fill="none" xmlns="http://www.w3.org/2000/svg">
<circle cx="20" cy="20" r="19.5" stroke="#FBFBFB"/>
<path d="M29.7504 13.9602C29.0332 14.2695 28.2527 14.4922 27.4488 14.5789C28.2835 14.0831 28.9085 13.2997 29.2066 12.3758C28.4234 12.8417 27.5654 13.1684 26.6707 13.3414C26.2967 12.9416 25.8445 12.6231 25.342 12.4058C24.8396 12.1885 24.2978 12.0769 23.7504 12.0781C21.5355 12.0781 19.7543 13.8734 19.7543 16.0766C19.7543 16.3859 19.7918 16.6953 19.8527 16.993C16.5363 16.8195 13.5785 15.2352 11.6121 12.8094C11.2538 13.4214 11.066 14.1182 11.0684 14.8274C11.0684 16.2149 11.7738 17.4383 12.8496 18.1578C12.2156 18.1329 11.5965 17.9586 11.0426 17.6492V17.6984C11.0426 19.6414 12.416 21.2516 14.2465 21.6219C13.9028 21.7112 13.5492 21.7568 13.1941 21.7578C12.934 21.7578 12.6879 21.732 12.4395 21.6969C12.9457 23.2813 14.4199 24.432 16.1754 24.4695C14.802 25.5453 13.0816 26.1781 11.2137 26.1781C10.8785 26.1781 10.5691 26.1664 10.248 26.1289C12.0199 27.2656 14.1223 27.9219 16.3863 27.9219C23.7363 27.9219 27.7582 21.8328 27.7582 16.5477C27.7582 16.3742 27.7582 16.2008 27.7465 16.0274C28.5246 15.4578 29.2066 14.7524 29.7504 13.9602Z" fill="#FBFBFB"/>
</svg>
