<svg width="40" height="40" viewBox="0 0 40 40" fill="none" xmlns="http://www.w3.org/2000/svg">
<circle cx="20" cy="20" r="19.5" stroke="#FBFBFB"/>
<path d="M20.0001 16.8753C18.2798 16.8753 16.8759 18.2792 16.8759 19.9995C16.8759 21.7198 18.2798 23.1237 20.0001 23.1237C21.7204 23.1237 23.1243 21.7198 23.1243 19.9995C23.1243 18.2792 21.7204 16.8753 20.0001 16.8753ZM29.3704 19.9995C29.3704 18.7058 29.3821 17.4237 29.3095 16.1323C29.2368 14.6323 28.8946 13.3011 27.7978 12.2042C26.6985 11.105 25.3696 10.7652 23.8696 10.6925C22.5759 10.6198 21.2939 10.6316 20.0025 10.6316C18.7087 10.6316 17.4267 10.6198 16.1353 10.6925C14.6353 10.7652 13.304 11.1073 12.2071 12.2042C11.1079 13.3034 10.7681 14.6323 10.6954 16.1323C10.6228 17.4261 10.6345 18.7081 10.6345 19.9995C10.6345 21.2909 10.6228 22.5753 10.6954 23.8667C10.7681 25.3667 11.1103 26.698 12.2071 27.7948C13.3064 28.8941 14.6353 29.2339 16.1353 29.3066C17.429 29.3792 18.711 29.3675 20.0025 29.3675C21.2962 29.3675 22.5782 29.3792 23.8696 29.3066C25.3696 29.2339 26.7009 28.8917 27.7978 27.7948C28.897 26.6956 29.2368 25.3667 29.3095 23.8667C29.3845 22.5753 29.3704 21.2933 29.3704 19.9995ZM20.0001 24.8066C17.34 24.8066 15.1931 22.6597 15.1931 19.9995C15.1931 17.3394 17.34 15.1925 20.0001 15.1925C22.6603 15.1925 24.8071 17.3394 24.8071 19.9995C24.8071 22.6597 22.6603 24.8066 20.0001 24.8066ZM25.004 16.1183C24.3829 16.1183 23.8814 15.6167 23.8814 14.9956C23.8814 14.3745 24.3829 13.873 25.004 13.873C25.6251 13.873 26.1267 14.3745 26.1267 14.9956C26.1269 15.1431 26.0979 15.2892 26.0416 15.4255C25.9852 15.5617 25.9026 15.6856 25.7983 15.7899C25.694 15.8942 25.5701 15.9768 25.4339 16.0332C25.2976 16.0895 25.1515 16.1185 25.004 16.1183Z" fill="#FBFBFB"/>
</svg>
