<svg width="48" height="48" viewBox="0 0 48 48" fill="none" xmlns="http://www.w3.org/2000/svg">
<rect width="48" height="48" rx="4" fill="#DDE6FC"/>
<path d="M27.0156 28.5847H20.349" stroke="#0247FE" stroke-width="1.5" stroke-miterlimit="10" stroke-linecap="round" stroke-linejoin="round"/>
<path d="M23.6823 25.3307V31.9974" stroke="#0247FE" stroke-width="1.5" stroke-miterlimit="10" stroke-linecap="round" stroke-linejoin="round"/>
<path d="M24.8799 11.3575L24.8399 11.4509L20.9733 20.4242H17.1733C16.2666 20.4242 15.3999 20.6109 14.6133 20.9442L16.9466 15.3709L16.9999 15.2375L17.0933 15.0242C17.1199 14.9442 17.1466 14.8642 17.1866 14.7975C18.9333 10.7575 20.9066 9.83753 24.8799 11.3575Z" stroke="#0247FE" stroke-width="1.5" stroke-linecap="round" stroke-linejoin="round"/>
<path d="M32.0673 20.6908C31.4673 20.5041 30.8273 20.4241 30.1873 20.4241H20.974L24.8406 11.4508L24.8806 11.3574C25.0806 11.4241 25.2673 11.5174 25.4673 11.5974L28.414 12.8374C30.054 13.5174 31.2006 14.2241 31.894 15.0774C32.0273 15.2374 32.134 15.3841 32.2273 15.5574C32.3473 15.7441 32.4406 15.9308 32.494 16.1308C32.5473 16.2508 32.5873 16.3708 32.614 16.4774C32.974 17.5974 32.7606 18.9708 32.0673 20.6908Z" stroke="#0247FE" stroke-width="1.5" stroke-linecap="round" stroke-linejoin="round"/>
<path d="M36.6956 26.9312V29.5312C36.6956 29.7978 36.6823 30.0645 36.669 30.3312C36.4156 34.9845 33.8156 37.3312 28.8823 37.3312H18.4823C18.1623 37.3312 17.8423 37.3045 17.5356 37.2645C13.2956 36.9845 11.029 34.7178 10.749 30.4778C10.709 30.1712 10.6823 29.8512 10.6823 29.5312V26.9312C10.6823 24.2512 12.309 21.9445 14.629 20.9445C15.429 20.6112 16.2823 20.4245 17.189 20.4245H30.2023C30.8556 20.4245 31.4956 20.5178 32.0823 20.6912C34.7356 21.5045 36.6956 23.9845 36.6956 26.9312Z" stroke="#0247FE" stroke-width="1.5" stroke-linecap="round" stroke-linejoin="round"/>
<path d="M16.9467 15.3711L14.6133 20.9444C12.2933 21.9444 10.6667 24.2511 10.6667 26.9311V23.0244C10.6667 19.2378 13.36 16.0778 16.9467 15.3711Z" stroke="#0247FE" stroke-width="1.5" stroke-linecap="round" stroke-linejoin="round"/>
<path d="M36.6915 23.0235V26.9302C36.6915 23.9969 34.7448 21.5035 32.0781 20.7035C32.7715 18.9702 32.9715 17.6102 32.6381 16.4769C32.6115 16.3569 32.5715 16.2369 32.5181 16.1302C34.9981 17.4102 36.6915 20.0369 36.6915 23.0235Z" stroke="#0247FE" stroke-width="1.5" stroke-linecap="round" stroke-linejoin="round"/>
</svg>
